<svg width="217" height="198" viewBox="0 0 217 198" fill="none" xmlns="http://www.w3.org/2000/svg">
<path d="M99.2015 112.896L87.3668 124.731L83.0708 120.432L94.9041 108.599L99.2015 112.896Z" fill="#7A7E82"/>
<path d="M99.8844 137.247L39.5911 197.541L10.4697 168.417L70.7631 108.124L99.8844 137.247Z" fill="#E9EAE9"/>
<path d="M42.6271 171.452L31.4792 182.601L25.4111 176.532L36.5578 165.384L42.6271 171.452Z" fill="#3959B1"/>
<path d="M34.3322 163.157L23.1829 174.305L17.1162 168.239L28.2656 157.089L34.3322 163.157Z" fill="#3959B1"/>
<path d="M50.9187 179.745L39.7708 190.895L33.7041 184.827L44.8508 173.679L50.9187 179.745Z" fill="#3959B1"/>
<path d="M56.7538 157.325L45.6045 168.473L39.5352 162.405L50.6845 151.257L56.7538 157.325Z" fill="#3959B1"/>
<path d="M48.4572 149.029L37.3105 160.179L31.2412 154.111L42.3906 142.963L48.4572 149.029Z" fill="#3959B1"/>
<path d="M65.048 165.619L53.8987 176.768L47.832 170.7L58.9787 159.551L65.048 165.619Z" fill="#3959B1"/>
<path d="M70.7335 143.342L59.5869 154.492L53.5176 148.422L64.6669 137.274L70.7335 143.342Z" fill="#3959B1"/>
<path d="M62.4386 135.049L51.2933 146.196L45.2227 140.129L56.3719 128.98L62.4386 135.049Z" fill="#3959B1"/>
<path d="M79.0292 151.636L67.8786 162.785L61.8105 156.717L72.9599 145.569L79.0292 151.636Z" fill="#3959B1"/>
<path d="M84.8615 129.216L73.7122 140.364L67.6455 134.296L78.7935 123.147L84.8615 129.216Z" fill="#3959B1"/>
<path d="M76.5665 120.921L65.4199 132.071L59.3506 126.001L70.4999 114.853L76.5665 120.921Z" fill="#3959B1"/>
<path d="M93.1564 137.509L82.0071 148.657L75.9404 142.591L87.0884 131.441L93.1564 137.509Z" fill="#3959B1"/>
<path d="M123.368 88.7306L135.2 76.8986L130.9 72.6012L119.066 84.4332L123.368 88.7306Z" fill="#7A7E82"/>
<path d="M147.716 89.4146L208.011 29.1227L178.888 0L118.594 60.2934L147.716 89.4146Z" fill="#E9EAE9"/>
<path d="M181.921 32.1559L193.071 21.0079L187.001 14.9385L175.854 26.0879L181.921 32.1559Z" fill="#3959B1"/>
<path d="M173.63 23.8626L184.777 12.7133L178.709 6.64527L167.561 17.7946L173.63 23.8626Z" fill="#3959B1"/>
<path d="M190.216 40.4493L201.366 29.3013L195.296 23.2333L184.148 34.3827L190.216 40.4493Z" fill="#3959B1"/>
<path d="M167.793 46.2838L178.943 35.1344L172.875 29.0678L161.727 40.2145L167.793 46.2838Z" fill="#3959B1"/>
<path d="M159.499 37.9894L170.649 26.8414L164.58 20.772L153.432 31.9214L159.499 37.9894Z" fill="#3959B1"/>
<path d="M176.088 54.5772L187.238 43.4293L181.168 37.3599L170.021 48.5092L176.088 54.5772Z" fill="#3959B1"/>
<path d="M153.812 60.2667L164.96 49.1161L158.893 43.0494L147.744 54.1974L153.812 60.2667Z" fill="#3959B1"/>
<path d="M145.52 51.9706L156.665 40.8226L150.597 34.7546L139.449 45.9039L145.52 51.9706Z" fill="#3959B1"/>
<path d="M162.106 68.5587L173.255 57.4107L167.187 51.3427L156.039 62.492L162.106 68.5587Z" fill="#3959B1"/>
<path d="M139.687 74.3932L150.832 63.2438L144.766 57.1772L133.616 68.3251L139.687 74.3932Z" fill="#3959B1"/>
<path d="M131.389 66.0987L142.539 54.9507L136.471 48.8813L125.321 60.0307L131.389 66.0987Z" fill="#3959B1"/>
<path d="M147.979 82.6881L159.127 71.5374L153.06 65.4707L141.911 76.6188L147.979 82.6881Z" fill="#3959B1"/>
<path d="M152.088 111.606L121.296 142.399L66.4722 87.5731L97.2642 56.7812L152.088 111.606Z" fill="#E9EAE9"/>
<path d="M151.05 122L131.692 141.358L125.455 138.241L147.932 115.765L151.05 122Z" fill="#A4A6A9"/>
<path d="M85.1602 106.261L115.951 75.4692L135.071 94.5879L104.277 125.379L85.1602 106.261Z" fill="#F25B27"/>
<path d="M89.6948 87.3439C90.8068 88.4559 90.8068 90.2599 89.6935 91.3719C88.5828 92.4839 86.7775 92.4839 85.6655 91.3719C84.5549 90.2599 84.5549 88.4559 85.6655 87.3439C86.7775 86.2319 88.5828 86.2306 89.6948 87.3439Z" fill="#F25B27"/>
<path d="M95.4291 81.6108C96.5384 82.7228 96.5384 84.5268 95.4291 85.6388C94.3144 86.7508 92.5118 86.7508 91.3984 85.6388C90.2878 84.5268 90.2878 82.7228 91.3984 81.6108C92.5118 80.4988 94.3144 80.4988 95.4291 81.6108Z" fill="#3959B1"/>
<path d="M101.063 75.976C102.177 77.088 102.177 78.892 101.063 80.004C99.9499 81.116 98.1472 81.116 97.0352 80.004C95.9219 78.892 95.9219 77.088 97.0352 75.976C98.1472 74.864 99.9512 74.864 101.063 75.976Z" fill="#39AB9B"/>
<path d="M83.8152 53.8573L63.5498 74.1252L70.1738 83.8692L93.5605 60.4839L83.8152 53.8573Z" fill="#A4A6A9"/>
<path d="M64.4989 52.648L62.3389 54.8067L71.8229 65.8507L75.5415 62.1334L64.4989 52.648Z" fill="#7A7E82"/>
<path d="M65.8855 49.96C67.6095 51.6813 67.6095 54.4733 65.8855 56.1946C64.1629 57.9186 61.3736 57.9186 59.6509 56.1946C57.9269 54.4733 57.9269 51.6813 59.6509 49.96C61.3736 48.2387 64.1629 48.2387 65.8855 49.96Z" fill="#E9EAE9"/>
<path d="M212.721 140.943C210.783 140.943 209.061 139.564 208.697 137.591C208.283 135.364 209.754 133.227 211.981 132.815C212.233 132.768 212.483 132.745 212.73 132.745C214.667 132.745 216.391 134.125 216.757 136.1C217.166 138.325 215.697 140.463 213.473 140.875C213.219 140.921 212.969 140.944 212.721 140.943Z" fill="url(#paint0_radial_2_1207)"/>
<path d="M4.09339 193.493C1.95473 193.493 0.153407 191.833 0.00940746 189.668C-0.142593 187.409 1.56542 185.457 3.82275 185.305C3.91609 185.299 4.0094 185.296 4.1014 185.296C6.24007 185.296 8.04409 186.956 8.18675 189.12C8.33875 191.38 6.6294 193.331 4.37074 193.484C4.2774 193.489 4.18539 193.493 4.09339 193.493Z" fill="url(#paint1_radial_2_1207)"/>
<path d="M168.671 82.9625C164.725 82.9625 161.417 80.2304 160.562 76.5678L170.499 66.6331C174.215 67.4598 176.993 70.7571 176.993 74.6971C176.993 79.2611 173.265 82.9625 168.671 82.9625Z" fill="url(#paint2_radial_2_1207)"/>
<path d="M160.563 76.568C160.423 75.9666 160.348 75.34 160.348 74.6973C160.348 70.1333 164.077 66.4333 168.671 66.4333C169.299 66.4333 169.911 66.5013 170.499 66.6333L160.563 76.568Z" fill="#F1F1F2"/>
<defs>
<radialGradient id="paint0_radial_2_1207" cx="0" cy="0" r="1" gradientUnits="userSpaceOnUse" gradientTransform="translate(-254.208 359.725) scale(695.695 695.693)">
<stop stop-color="#454B61"/>
<stop offset="1" stop-color="#36363F"/>
</radialGradient>
<radialGradient id="paint1_radial_2_1207" cx="0" cy="0" r="1" gradientUnits="userSpaceOnUse" gradientTransform="translate(-254.207 359.725) scale(695.694 695.693)">
<stop stop-color="#454B61"/>
<stop offset="1" stop-color="#36363F"/>
</radialGradient>
<radialGradient id="paint2_radial_2_1207" cx="0" cy="0" r="1" gradientUnits="userSpaceOnUse" gradientTransform="translate(-254.207 359.726) scale(695.693 695.695)">
<stop stop-color="#656C82"/>
<stop offset="1" stop-color="#54555F"/>
</radialGradient>
</defs>
</svg>
