<svg width="234" height="215" viewBox="0 0 234 215" fill="none" xmlns="http://www.w3.org/2000/svg">
<path d="M174.313 97.0491C174.216 95.6611 174.073 94.2891 173.889 92.9264C173.511 90.1637 172.948 87.4597 172.223 84.825C169.884 76.3757 165.829 68.6424 160.436 62.0398C158.241 59.3544 155.82 56.8637 153.216 54.5757C149.984 51.7424 146.461 49.2371 142.692 47.1131C133.657 42.0184 123.233 39.0997 112.12 39.0997C101.008 39.0997 90.588 42.0184 81.5493 47.1131C77.784 49.2371 74.2573 51.7424 71.028 54.5757C68.4213 56.8637 66 59.3544 63.8066 62.0398C58.4133 68.6424 54.3533 76.3757 52.0187 84.825C51.292 87.4597 50.7307 90.1637 50.3533 92.9264C50.168 94.2891 50.028 95.6611 49.9293 97.0491C49.828 98.5091 49.7573 99.9797 49.7573 101.464C49.7573 101.812 49.7773 102.153 49.78 102.498C49.8746 108.074 50.6973 113.472 52.16 118.601C53.036 121.669 54.1347 124.637 55.4507 127.494C56.5987 129.992 57.908 132.401 59.3613 134.706C60.716 136.845 62.1813 138.9 63.7733 140.852C67.296 145.17 71.3893 149 75.9333 152.242C86.1427 159.53 98.6253 163.829 112.12 163.829C125.617 163.829 138.101 159.53 148.309 152.242C152.851 149 156.944 145.17 160.468 140.852C162.059 138.9 163.525 136.845 164.88 134.706C166.335 132.401 167.643 129.992 168.792 127.494C170.107 124.637 171.205 121.669 172.083 118.601C173.544 113.472 174.367 108.074 174.461 102.498C174.465 102.153 174.487 101.812 174.487 101.464C174.487 99.9797 174.416 98.5091 174.313 97.0491Z" fill="#F57D22"/>
<path d="M52.1603 118.601H172.083C173.544 113.472 174.367 108.075 174.462 102.499H49.7803C49.8749 108.075 50.6976 113.472 52.1603 118.601Z" fill="#F6BE15"/>
<path d="M59.3614 134.707H164.88C166.335 132.401 167.643 129.992 168.792 127.494H55.4507C56.5987 129.992 57.908 132.401 59.3614 134.707Z" fill="#F6BE15"/>
<path d="M75.9335 152.243H148.309C152.851 149 156.944 145.171 160.468 140.852H63.7734C67.2961 145.171 71.3895 149 75.9335 152.243Z" fill="#F6BE15"/>
<path d="M50.3537 92.9266C50.1683 94.2893 50.0284 95.6613 49.9297 97.0493H174.314C174.216 95.6613 174.074 94.2893 173.89 92.9266H50.3537Z" fill="#F6BE15"/>
<path d="M160.436 62.0399H63.8065C58.4132 68.6425 54.3532 76.3758 52.0186 84.8252H172.223C169.884 76.3758 165.829 68.6425 160.436 62.0399Z" fill="#F6BE15"/>
<path d="M142.692 47.1133H81.5496C77.7843 49.2373 74.2577 51.7426 71.0283 54.5759H153.216C149.984 51.7426 146.462 49.2373 142.692 47.1133Z" fill="#F6BE15"/>
<path d="M107.395 92.0346C97.9617 101.899 83.539 103.42 75.1817 95.4306C66.823 87.4426 67.6977 72.9639 77.131 63.0972C86.5644 53.2319 100.984 51.7106 109.344 59.7013C117.702 67.6893 116.828 82.1679 107.395 92.0346Z" fill="#F4E212"/>
<path d="M212.819 167.184C212.819 174.249 207.092 179.977 200.024 179.977C192.961 179.977 187.233 174.249 187.233 167.184C187.233 160.117 192.961 154.392 200.024 154.392C207.092 154.392 212.819 160.117 212.819 167.184Z" fill="#505256"/>
<path d="M233.533 80.5171C233.533 86.5051 228.683 91.3598 222.692 91.3598C216.705 91.3598 211.851 86.5051 211.851 80.5171C211.851 74.5291 216.705 69.6758 222.692 69.6758C228.683 69.6758 233.533 74.5291 233.533 80.5171Z" fill="#BBBCBD"/>
<path d="M72.6333 203.183C72.6333 209.409 67.584 214.46 61.3573 214.46C55.132 214.46 50.084 209.409 50.084 203.183C50.084 196.957 55.132 191.909 61.3573 191.909C67.584 191.909 72.6333 196.957 72.6333 203.183Z" fill="#505256"/>
<path d="M35.5613 17.7813C35.5613 27.6 27.6013 35.56 17.784 35.56C7.96133 35.56 0 27.6 0 17.7813C0 7.96132 7.96133 3.8147e-06 17.784 3.8147e-06C27.6013 3.8147e-06 35.5613 7.96132 35.5613 17.7813Z" fill="#505256"/>
<path d="M116.12 163.829C115.451 163.829 114.784 163.818 114.12 163.798C126.851 163.396 138.607 159.169 148.309 152.242C152.851 149 156.944 145.17 160.468 140.852C162.059 138.9 163.525 136.845 164.88 134.706C166.335 132.401 167.643 129.992 168.792 127.494C170.107 124.637 171.205 121.669 172.083 118.601C173.544 113.472 174.367 108.074 174.461 102.498C174.465 102.153 174.487 101.812 174.487 101.464C174.487 99.9797 174.416 98.5091 174.313 97.0491C174.216 95.6611 174.073 94.2891 173.889 92.9264C173.511 90.1637 172.948 87.4597 172.223 84.825C169.884 76.3757 165.829 68.6424 160.436 62.0398C159.283 60.6291 158.067 59.2717 156.795 57.969C156.285 56.2091 155.707 54.4797 155.061 52.7824C155.791 53.3664 156.513 53.961 157.216 54.5757C158.952 56.101 160.607 57.7171 162.168 59.4211C162.175 59.4277 162.181 59.4357 162.188 59.4424C162.2 59.4557 162.213 59.4704 162.225 59.4837C162.985 60.3144 163.723 61.1664 164.436 62.0398C164.467 62.0771 164.496 62.1144 164.527 62.1517C164.884 62.5917 165.236 63.0357 165.581 63.4851C166.917 65.2251 168.164 67.0371 169.315 68.9131C169.519 69.2477 169.72 69.5851 169.919 69.9237C171.003 71.7704 171.995 73.6811 172.888 75.6437C173.013 75.9197 173.137 76.197 173.259 76.4757C173.805 77.725 174.312 78.9957 174.779 80.2864C174.78 80.2917 174.783 80.2971 174.784 80.3024C174.792 80.3237 174.799 80.3437 174.807 80.3651C174.808 80.3691 174.811 80.3744 174.812 80.3797C174.824 80.4131 174.836 80.4451 174.847 80.4771C174.852 80.4917 174.856 80.5037 174.861 80.517C174.867 80.5317 174.871 80.5464 174.876 80.5597C174.883 80.5757 174.888 80.5917 174.893 80.6077C174.897 80.6197 174.901 80.6304 174.905 80.6424C174.915 80.669 174.925 80.6971 174.935 80.7237C174.935 80.7251 174.935 80.7264 174.936 80.7277C174.945 80.757 174.956 80.785 174.967 80.8144C174.968 80.821 174.971 80.8277 174.973 80.8357C174.981 80.8597 174.991 80.8837 174.999 80.9077C175.001 80.9131 175.003 80.9197 175.005 80.925C175.027 80.9864 175.048 81.0477 175.069 81.109C175.069 81.1104 175.071 81.113 175.071 81.1144C175.469 82.269 175.835 83.4397 176.167 84.6237C176.168 84.6277 176.169 84.6304 176.171 84.6344C176.177 84.6611 176.185 84.6891 176.192 84.7157C176.195 84.7211 176.196 84.7277 176.197 84.733C176.207 84.7637 176.215 84.7944 176.223 84.825C176.248 84.9144 176.272 85.005 176.296 85.0944C176.629 86.3237 176.927 87.569 177.185 88.8277C177.236 89.073 177.285 89.3211 177.333 89.5677C177.548 90.6771 177.733 91.7971 177.888 92.9264C178.073 94.2891 178.215 95.6611 178.313 97.0491C178.349 97.5677 178.383 98.0891 178.409 98.6104C178.42 98.8224 178.429 99.0344 178.437 99.2477C178.468 99.9837 178.487 100.722 178.487 101.464C178.487 101.812 178.465 102.153 178.46 102.498C178.459 102.574 178.457 102.649 178.456 102.725C178.456 102.734 178.456 102.742 178.456 102.752C178.455 102.754 178.455 102.756 178.455 102.758C178.428 104.01 178.363 105.254 178.263 106.486C178.177 107.556 178.045 108.61 177.907 109.662C177.877 109.882 177.861 110.108 177.829 110.326C177.805 110.49 177.783 110.653 177.757 110.816C177.396 113.185 176.901 115.512 176.285 117.788C171.639 133.396 161.42 146.594 147.932 155.09C147.004 155.642 146.059 156.173 145.1 156.677C143.696 157.414 142.26 158.101 140.796 158.734L140.575 158.83C139.396 159.334 138.197 159.802 136.983 160.234L136.643 160.353C135.415 160.782 134.173 161.18 132.912 161.533L132.84 161.552C131.589 161.9 130.323 162.206 129.043 162.476L128.745 162.541C127.517 162.794 126.273 163.006 125.021 163.185C124.809 163.216 124.597 163.246 124.384 163.274C123.156 163.437 121.916 163.568 120.664 163.658C120.465 163.673 120.264 163.681 120.064 163.694C118.791 163.774 117.509 163.826 116.216 163.829C116.184 163.829 116.152 163.829 116.12 163.829Z" fill="url(#paint0_radial_2_1263)"/>
<path d="M114.12 163.799C112.199 163.737 110.298 163.589 108.423 163.357C108.395 163.355 108.367 163.351 108.339 163.348C108.335 163.347 108.332 163.347 108.328 163.347C97.8297 162.033 88.1457 158.105 79.9337 152.242H148.31C138.607 159.169 126.851 163.396 114.12 163.799ZM160.468 140.852H109.348C114.838 139.455 120.052 137.375 124.9 134.707H164.88C163.526 136.845 162.059 138.9 160.468 140.852ZM76.5216 140.852H67.7736L67.763 140.84C67.1443 140.08 66.555 139.299 65.979 138.505C65.8736 138.361 65.7683 138.217 65.663 138.073C65.3017 137.567 64.947 137.056 64.5977 136.541C68.3897 138.34 72.3776 139.792 76.5216 140.852ZM168.792 127.495H135.462C138.676 124.813 141.634 121.835 144.292 118.601H172.083C171.206 121.669 170.107 124.637 168.792 127.495ZM174.462 102.499H154.08C154.84 100.72 155.524 98.9025 156.13 97.0492H174.314C174.216 95.6612 174.074 94.2892 173.89 92.9266H157.328C158.003 90.2866 158.522 87.5798 158.871 84.8252H172.223C169.884 76.3759 165.83 68.6426 160.436 62.0399H157.834C157.53 60.6666 157.183 59.3092 156.795 57.9692C158.067 59.2719 159.283 60.6292 160.436 62.0399C165.83 68.6426 169.884 76.3759 172.223 84.8252C172.948 87.4599 173.511 90.1639 173.89 92.9266C174.074 94.2892 174.216 95.6612 174.314 97.0492C174.416 98.5092 174.487 99.9799 174.487 101.464C174.487 101.812 174.466 102.153 174.462 102.499Z" fill="#F3671A"/>
<path d="M172.083 118.601H144.292C148.272 113.759 151.583 108.343 154.08 102.499H174.461C174.367 108.075 173.544 113.472 172.083 118.601Z" fill="#F6A010"/>
<path d="M164.88 134.707H124.9C128.656 132.641 132.192 130.221 135.461 127.494H168.792C167.643 129.992 166.335 132.401 164.88 134.707Z" fill="#F6A010"/>
<path d="M148.309 152.243H79.9335C79.5428 151.964 79.1561 151.681 78.7721 151.393C74.6908 148.337 70.9934 144.799 67.7734 140.852H76.5215C81.7521 142.191 87.2321 142.905 92.8841 142.905C98.5668 142.905 104.084 142.192 109.348 140.852H160.468C156.944 145.171 152.851 149 148.309 152.243Z" fill="#F6A010"/>
<path d="M174.313 97.0493H156.129C156.572 95.692 156.972 94.32 157.328 92.9266H173.889C174.073 94.2893 174.216 95.6613 174.313 97.0493Z" fill="#F6A010"/>
<path d="M172.223 84.8252H158.871C159.22 82.0625 159.4 79.2465 159.4 76.3879C159.4 71.4599 158.857 66.6599 157.833 62.0399H160.436C165.829 68.6425 169.884 76.3758 172.223 84.8252Z" fill="#F6A010"/>
<path d="M145.071 156.693C145.081 156.688 145.091 156.683 145.1 156.677C147.609 155.36 150.017 153.879 152.309 152.243C156.851 149 160.943 145.171 164.468 140.852C166.059 138.9 167.525 136.845 168.88 134.707C170.335 132.401 171.643 129.992 172.792 127.495C174.107 124.637 175.205 121.669 176.083 118.601C176.804 116.069 177.36 113.468 177.757 110.816C177.757 110.816 177.757 110.816 177.757 110.815C177.36 113.468 176.804 116.069 176.083 118.601C175.205 121.669 174.107 124.637 172.792 127.495C171.643 129.992 170.336 132.401 168.88 134.707C167.527 136.845 166.059 138.9 164.468 140.852C160.943 145.171 156.851 149 152.309 152.243C150.009 153.885 147.591 155.372 145.071 156.693Z" fill="url(#paint1_radial_2_1263)"/>
<path d="M178.437 103.428C178.444 103.205 178.451 102.981 178.455 102.758C178.455 102.756 178.455 102.754 178.456 102.752C178.456 102.744 178.456 102.733 178.456 102.725C178.457 102.65 178.459 102.577 178.46 102.502V102.498C178.465 102.153 178.487 101.812 178.487 101.464C178.487 101.812 178.465 102.153 178.461 102.498V102.502C178.455 102.812 178.448 103.12 178.437 103.428ZM178.427 98.9824C178.421 98.8584 178.415 98.7344 178.409 98.6104C178.383 98.0891 178.349 97.5677 178.313 97.0491C178.359 97.6917 178.397 98.3357 178.427 98.9824ZM177.888 92.9264C177.733 91.7971 177.548 90.6771 177.333 89.5677C177.041 88.0571 176.695 86.565 176.296 85.0944C176.272 85.005 176.248 84.9144 176.223 84.825C176.215 84.7944 176.207 84.7637 176.197 84.733C176.196 84.7277 176.195 84.7211 176.192 84.7157C176.185 84.6891 176.177 84.6611 176.171 84.6344C176.169 84.6304 176.168 84.6277 176.167 84.6237C175.835 83.4397 175.469 82.269 175.071 81.1144C175.071 81.113 175.069 81.1104 175.069 81.109C175.048 81.0477 175.027 80.9864 175.005 80.925C175.003 80.9197 175.001 80.913 174.999 80.9077C174.991 80.8837 174.981 80.8597 174.973 80.8357C174.971 80.8277 174.969 80.821 174.967 80.8144C174.956 80.785 174.945 80.757 174.936 80.7277C174.935 80.7264 174.935 80.7251 174.935 80.7237C174.925 80.6971 174.915 80.669 174.905 80.6424C174.901 80.6304 174.897 80.6184 174.893 80.6077C174.888 80.5917 174.883 80.5757 174.876 80.5597C174.872 80.5464 174.867 80.5317 174.861 80.517C174.856 80.5037 174.852 80.4904 174.847 80.4771C174.836 80.4451 174.824 80.4117 174.812 80.3797C174.811 80.3744 174.808 80.3691 174.807 80.3651C174.799 80.3437 174.792 80.3237 174.784 80.3024C174.783 80.297 174.78 80.2917 174.779 80.2864C174.683 80.021 174.585 79.7571 174.487 79.4931C175.141 81.2357 175.723 83.0144 176.224 84.825C176.585 86.1424 176.908 87.477 177.187 88.8277C177.464 90.177 177.7 91.5451 177.888 92.9264ZM174.473 79.4597C174.468 79.4464 174.463 79.4317 174.457 79.417C174.463 79.4317 174.468 79.4451 174.473 79.4597ZM174.437 79.3664C174.437 79.3624 174.435 79.3597 174.435 79.3557C174.436 79.3597 174.436 79.3624 174.437 79.3664ZM172.352 74.4957C171.913 73.5824 171.455 72.6824 170.975 71.7944C171.455 72.6824 171.913 73.5824 172.352 74.4957ZM169.824 69.7624C169.656 69.4784 169.487 69.1944 169.315 68.9131C168.401 67.4224 167.427 65.9731 166.395 64.5677C167.621 66.2371 168.767 67.9704 169.824 69.7624ZM166.216 64.3264C166.007 64.0451 165.796 63.7637 165.581 63.4851C165.236 63.0357 164.884 62.5917 164.527 62.1517C164.496 62.1144 164.465 62.0771 164.436 62.0397C163.887 61.3691 163.324 60.7091 162.748 60.0624C162.575 59.8677 162.401 59.6757 162.225 59.4837C162.213 59.4704 162.2 59.4557 162.188 59.4423C162.181 59.4357 162.175 59.4277 162.168 59.4211C160.651 57.7651 159.044 56.1917 157.36 54.7037C159.261 56.3824 161.063 58.1704 162.748 60.0624C163.325 60.7091 163.888 61.3691 164.436 62.0397C165.047 62.7877 165.64 63.5504 166.216 64.3264ZM157.327 54.6744C157.315 54.6637 157.303 54.653 157.291 54.641C157.303 54.653 157.315 54.6637 157.327 54.6744ZM157.216 54.5757C153.984 51.7423 150.46 49.2371 146.692 47.1131C137.764 42.0784 127.476 39.1691 116.511 39.1011C127.476 39.1691 137.765 42.0784 146.693 47.1131C150.46 49.2371 153.984 51.7423 157.216 54.5757Z" fill="url(#paint2_radial_2_1263)"/>
<path d="M116.216 163.829C117.509 163.826 118.791 163.774 120.064 163.694C120.264 163.681 120.465 163.673 120.664 163.658C121.916 163.568 123.156 163.437 124.384 163.274C124.597 163.246 124.809 163.216 125.021 163.185C126.273 163.006 127.517 162.794 128.745 162.541L129.042 162.476C130.322 162.206 131.589 161.9 132.84 161.552L132.912 161.533C134.173 161.18 135.414 160.782 136.642 160.353L136.982 160.234C138.197 159.802 139.396 159.334 140.574 158.83L140.796 158.734C142.26 158.101 143.696 157.414 145.1 156.677C145.091 156.682 145.081 156.688 145.071 156.693C143.676 157.425 142.249 158.105 140.796 158.734L140.576 158.83C139.396 159.334 138.197 159.802 136.982 160.234L136.642 160.353C135.414 160.782 134.173 161.18 132.912 161.533L132.84 161.552C131.589 161.9 130.322 162.206 129.042 162.476L128.745 162.541C127.517 162.794 126.273 163.006 125.021 163.185C124.809 163.216 124.597 163.246 124.384 163.274C123.156 163.437 121.916 163.568 120.665 163.658C120.465 163.673 120.264 163.681 120.065 163.694C118.791 163.774 117.51 163.826 116.217 163.829H116.216Z" fill="url(#paint3_radial_2_1263)"/>
<path d="M177.757 110.816C177.782 110.653 177.805 110.491 177.829 110.327C177.861 110.108 177.877 109.883 177.906 109.663C178.045 108.611 178.177 107.556 178.262 106.487C178.362 105.255 178.428 104.011 178.454 102.759C178.45 102.981 178.444 103.205 178.437 103.428C178.404 104.455 178.345 105.475 178.262 106.487C178.177 107.556 178.045 108.611 177.906 109.663C177.877 109.883 177.861 110.108 177.829 110.327C177.805 110.489 177.782 110.652 177.757 110.815C177.757 110.816 177.757 110.816 177.757 110.816ZM178.456 102.752C178.456 102.743 178.456 102.735 178.456 102.725C178.456 102.733 178.456 102.744 178.456 102.752ZM178.437 99.2479C178.429 99.0345 178.42 98.8225 178.409 98.6105C178.414 98.7345 178.421 98.8586 178.426 98.9826C178.43 99.0706 178.435 99.1585 178.437 99.2479ZM177.333 89.5679C177.285 89.3212 177.236 89.0732 177.185 88.8279C176.926 87.5692 176.629 86.3239 176.296 85.0945C176.694 86.5652 177.041 88.0572 177.333 89.5679ZM176.197 84.7332C176.196 84.7279 176.194 84.7212 176.192 84.7159C176.194 84.7212 176.196 84.7279 176.197 84.7332ZM176.171 84.6346C176.169 84.6306 176.168 84.6279 176.167 84.6239C176.168 84.6279 176.169 84.6306 176.171 84.6346ZM175.071 81.1145C175.071 81.1132 175.069 81.1105 175.069 81.1092C175.069 81.1105 175.071 81.1132 175.071 81.1145ZM175.005 80.9252C175.003 80.9199 175.001 80.9132 174.999 80.9079C175.001 80.9132 175.003 80.9199 175.005 80.9252ZM174.973 80.8359C174.97 80.8279 174.968 80.8212 174.967 80.8145C174.969 80.8212 174.97 80.8279 174.973 80.8359ZM174.936 80.7279C174.935 80.7265 174.935 80.7252 174.935 80.7239C174.935 80.7252 174.935 80.7265 174.936 80.7279ZM174.905 80.6425C174.901 80.6305 174.897 80.6199 174.893 80.6079C174.897 80.6185 174.901 80.6305 174.905 80.6425ZM174.876 80.5599C174.87 80.5466 174.866 80.5319 174.861 80.5172C174.866 80.5319 174.872 80.5466 174.876 80.5599ZM174.846 80.4772C174.836 80.4452 174.824 80.4132 174.812 80.3799C174.824 80.4119 174.836 80.4452 174.846 80.4772ZM174.806 80.3652C174.798 80.3439 174.792 80.3239 174.784 80.3025C174.792 80.3239 174.798 80.3439 174.806 80.3652ZM174.778 80.2865C174.312 78.9959 173.805 77.7252 173.258 76.4758C173.673 77.4238 174.065 78.3839 174.435 79.3559C174.435 79.3599 174.437 79.3625 174.437 79.3665C174.444 79.3825 174.45 79.3999 174.457 79.4172C174.462 79.4319 174.468 79.4466 174.473 79.4599C174.477 79.4719 174.481 79.4826 174.486 79.4932C174.585 79.7572 174.682 80.0212 174.778 80.2865ZM172.888 75.6439C171.994 73.6812 171.002 71.7706 169.918 69.9239C170.281 70.5399 170.633 71.1639 170.974 71.7945C171.454 72.6825 171.913 73.5826 172.352 74.4959C172.534 74.8759 172.713 75.2585 172.888 75.6439ZM169.918 69.9239C169.72 69.5852 169.518 69.2479 169.314 68.9132C169.486 69.1945 169.656 69.4786 169.824 69.7626C169.856 69.8159 169.888 69.8692 169.918 69.9239ZM165.581 63.4852C165.236 63.0359 164.884 62.5919 164.526 62.1519C164.884 62.5919 165.236 63.0359 165.581 63.4852ZM162.225 59.4839C162.213 59.4705 162.2 59.4558 162.188 59.4425C162.2 59.4558 162.213 59.4705 162.225 59.4839ZM162.168 59.4212C160.607 57.7172 158.952 56.1012 157.216 54.5758C157.24 54.5985 157.265 54.6199 157.29 54.6412C157.302 54.6532 157.314 54.6639 157.326 54.6745C157.338 54.6839 157.349 54.6946 157.36 54.7039C159.044 56.1919 160.651 57.7652 162.168 59.4212Z" fill="url(#paint4_radial_2_1263)"/>
<path d="M116.12 190.496C106.704 190.496 97.4175 189.024 88.5215 186.12C79.9295 183.316 71.8281 179.22 64.4401 173.946C58.0361 169.376 52.2708 163.99 47.2988 157.938L47.0335 157.626L46.8282 157.358C46.0575 156.402 45.2788 155.381 44.4562 154.248C43.0828 152.381 41.8961 150.653 40.7988 148.921C38.7175 145.618 36.8415 142.157 35.2268 138.645C33.3482 134.564 31.7641 130.284 30.5148 125.912C28.3921 118.465 27.2481 110.738 27.1175 102.946V102.932L27.1161 102.88C27.1015 102.41 27.0908 101.938 27.0908 101.464C27.0908 99.5051 27.1668 97.5144 27.3308 95.1531C27.4695 93.2011 27.6708 91.2465 27.9335 89.3131C28.4641 85.4291 29.2641 81.5345 30.3161 77.7238C33.6228 65.7531 39.2882 54.8011 47.1562 45.1691C50.2428 41.3891 53.7042 37.8105 57.4375 34.5331C62.0548 30.4825 67.1055 26.8998 72.4562 23.8811C85.7455 16.3918 100.844 12.4331 116.12 12.4331C116.803 12.4331 117.485 12.4411 118.167 12.4571C118.148 12.6225 118.139 12.7904 118.139 12.9611C118.139 15.4758 120.177 17.5144 122.692 17.5144C125.149 17.5144 127.152 15.5678 127.243 13.1331C138.66 14.5731 149.743 18.2184 159.785 23.8811C165.121 26.8891 170.172 30.4705 174.813 34.5411C177.592 36.9811 180.231 39.5985 182.665 42.3291C183.495 43.2611 184.311 44.2184 185.088 45.1691C186.037 46.3318 186.976 47.5424 187.889 48.7838C189.692 51.2398 191.385 53.8131 192.92 56.4291C194.467 59.0665 195.893 61.8158 197.161 64.6025C199.083 68.8265 200.685 73.2371 201.933 77.7478C202.452 79.6291 202.913 81.5478 203.303 83.4398C203.701 85.3732 204.04 87.3465 204.313 89.3398C204.576 91.2718 204.777 93.2358 204.913 95.1758C204.984 96.1691 205.043 97.1638 205.081 98.1398C205.129 99.2758 205.153 100.394 205.153 101.464C205.153 101.972 205.141 102.474 205.124 102.977L205.123 103.024C205.089 104.88 204.995 106.773 204.844 108.61C204.721 110.156 204.551 111.57 204.379 112.889C204.335 113.289 204.287 113.689 204.231 114.085C203.656 118.121 202.815 122.098 201.721 125.936C200.476 130.288 198.895 134.56 197.016 138.646C195.384 142.189 193.505 145.653 191.408 148.976C189.461 152.05 187.351 154.985 185.127 157.714C180.112 163.857 174.284 169.318 167.804 173.945C162.701 177.588 157.173 180.706 151.375 183.212L151.297 183.246H151.295L151.055 183.352C149.38 184.066 147.653 184.742 145.947 185.35L145.44 185.526C143.588 186.173 141.84 186.725 140.105 187.21L139.808 187.292C138.163 187.745 136.459 188.161 134.721 188.532C134.516 188.578 134.308 188.622 134.101 188.665C132.399 189.016 130.667 189.316 128.765 189.588L128.667 189.602C128.399 189.64 128.132 189.678 127.9 189.708C126.115 189.945 124.328 190.129 122.577 190.256C122.312 190.276 122.044 190.292 121.776 190.306L121.736 190.309C119.724 190.434 117.888 190.496 116.12 190.496ZM116.12 29.7664C103.82 29.7664 91.6628 32.9531 80.9668 38.9825C76.6602 41.4105 72.5922 44.2958 68.8722 47.5611C65.8535 50.2091 63.0628 53.0945 60.5788 56.1345C54.2455 63.8892 49.6855 72.7052 47.0228 82.3398C46.1775 85.4038 45.5335 88.5385 45.1068 91.6625C44.8961 93.2118 44.7335 94.7971 44.6201 96.3851C44.4855 98.3078 44.4242 99.9158 44.4242 101.464C44.4242 101.756 44.4321 102.045 44.4401 102.334L44.4481 102.604C44.5548 108.938 45.4748 115.164 47.1841 121.16C48.1881 124.674 49.4628 128.117 50.9722 131.397C52.2748 134.229 53.7868 137.018 55.4642 139.682C56.3308 141.049 57.3015 142.461 58.4468 144.016C59.1548 144.99 59.8081 145.846 60.4415 146.629L60.4748 146.672L60.5655 146.781C64.5988 151.72 69.2908 156.112 74.5108 159.838C80.4628 164.086 86.9855 167.385 93.8988 169.642C101.057 171.978 108.533 173.162 116.12 173.162C117.523 173.162 119.004 173.113 120.651 173.009L120.812 173C120.987 172.99 121.16 172.98 121.333 172.968C122.732 172.866 124.172 172.717 125.615 172.526L126.217 172.442L126.329 172.426C127.865 172.206 129.268 171.964 130.631 171.682C130.729 171.662 130.86 171.634 130.992 171.604C132.461 171.293 133.931 170.936 135.335 170.545L135.408 170.526C136.813 170.133 138.219 169.689 139.721 169.164L139.827 169.128L140.117 169.026C141.505 168.532 142.896 167.988 144.243 167.412L144.443 167.325C149.173 165.281 153.627 162.77 157.732 159.838C162.959 156.106 167.659 151.704 171.699 146.753C173.483 144.565 175.185 142.194 176.765 139.701C178.443 137.042 179.956 134.253 181.271 131.397C182.78 128.116 184.052 124.676 185.056 121.168C185.929 118.104 186.607 114.902 187.069 111.642C187.101 111.424 187.131 111.177 187.156 110.928L187.164 110.841C187.3 109.812 187.46 108.558 187.567 107.23C187.689 105.71 187.767 104.168 187.792 102.661L187.793 102.632L187.8 102.378C187.811 102.076 187.82 101.77 187.82 101.464C187.82 100.621 187.801 99.7691 187.764 98.8598C187.731 98.0398 187.681 97.2158 187.624 96.3931C187.513 94.8238 187.349 93.2345 187.137 91.6705C186.92 90.0838 186.648 88.4971 186.327 86.9411C186.012 85.4118 185.64 83.8651 185.221 82.3478C184.221 78.7318 182.931 75.1811 181.384 71.7798C180.363 69.5358 179.215 67.3224 177.969 65.1998C176.733 63.0931 175.371 61.0211 173.919 59.0438C173.187 58.0491 172.429 57.0718 171.663 56.1345C171.04 55.3718 170.385 54.6051 169.72 53.8558C167.759 51.6558 165.625 49.5398 163.375 47.5638C159.64 44.2891 155.571 41.4025 151.275 38.9825C140.584 32.9531 128.428 29.7664 116.12 29.7664Z" fill="url(#paint5_radial_2_1263)"/>
<path d="M116.12 163.829C115.451 163.829 114.784 163.818 114.12 163.798C114.784 163.818 115.452 163.829 116.12 163.829Z" fill="url(#paint6_radial_2_1263)"/>
<path d="M114.12 163.799C108.22 163.612 102.527 162.603 97.1523 160.884C100.747 162.033 104.483 162.865 108.328 163.347C108.331 163.347 108.336 163.347 108.339 163.348C108.367 163.351 108.395 163.355 108.423 163.357C110.299 163.589 112.198 163.737 114.12 163.799Z" fill="#F6811F"/>
<path d="M59.4506 127.495H59.4493C58.248 124.883 57.2266 122.179 56.3906 119.389C57.2266 122.179 58.248 124.883 59.4506 127.495Z" fill="#F6811F"/>
<path d="M63.3612 134.707C61.9079 132.401 60.5986 129.992 59.4492 127.494H59.4506C60.5986 129.992 61.9092 132.401 63.3612 134.707Z" fill="#F7BF12"/>
<path d="M114.12 39.1318C114.784 39.1105 115.451 39.0998 116.12 39.0998C116.251 39.0998 116.381 39.0998 116.511 39.1011C116.381 39.0998 116.251 39.0998 116.12 39.0998C115.451 39.0998 114.784 39.1105 114.12 39.1318Z" fill="url(#paint7_radial_2_1263)"/>
<path d="M53.7573 101.464C53.7573 99.9798 53.828 98.5092 53.9293 97.0492C53.828 98.5092 53.7573 99.9798 53.7573 101.464ZM54.3533 92.9265C54.7307 90.1639 55.292 87.4598 56.0187 84.8252H56.02C55.292 87.4598 54.732 90.1639 54.3533 92.9265ZM85.5493 47.1132C94.0426 42.3252 103.759 39.4599 114.12 39.1319C103.759 39.4599 94.0426 42.3252 85.5493 47.1132Z" fill="#F6811F"/>
<path d="M53.9297 97.0493C54.0284 95.6613 54.1683 94.2893 54.3537 92.9266C54.1697 94.2893 54.0284 95.6613 53.9297 97.0493Z" fill="#F7BF12"/>
<path d="M56.0199 84.8252H56.0186C58.3532 76.3758 62.4132 68.6425 67.8065 62.0399C62.4132 68.6425 58.3532 76.3758 56.0199 84.8252Z" fill="#F7BF12"/>
<path d="M75.0283 54.5759C78.2577 51.7426 81.783 49.2373 85.5496 47.1133C81.7843 49.2373 78.2577 51.7426 75.0283 54.5759Z" fill="#F7BF12"/>
<path d="M116.12 163.829C115.452 163.829 114.784 163.818 114.12 163.798C114.784 163.818 115.451 163.829 116.12 163.829Z" fill="url(#paint8_radial_2_1263)"/>
<path d="M114.12 163.799C112.197 163.737 110.299 163.589 108.423 163.357C110.297 163.589 112.199 163.737 114.12 163.799ZM108.339 163.348C108.336 163.347 108.331 163.347 108.328 163.347C108.332 163.347 108.335 163.347 108.339 163.348ZM67.7733 140.852H67.772L67.7627 140.84L67.7733 140.852Z" fill="#F46A17"/>
<path d="M78.772 151.393C74.6906 148.337 70.9933 144.799 67.772 140.852H67.7733C70.9933 144.799 74.6906 148.337 78.772 151.393Z" fill="#F6A20E"/>
<path d="M116.12 173.163C108.533 173.163 101.057 171.979 93.8985 169.643C86.9852 167.385 80.4625 164.087 74.5105 159.839C69.2905 156.112 64.5985 151.72 60.5652 146.781L60.4745 146.672L60.4411 146.629C59.8078 145.847 59.1545 144.991 58.4465 144.016C57.3012 142.461 56.3305 141.049 55.4638 139.683C53.7865 137.019 52.2745 134.229 50.9718 131.397C49.4625 128.117 48.1878 124.675 47.1838 121.16C45.4745 115.164 44.5545 108.939 44.4478 102.604L44.4398 102.335C44.4318 102.045 44.4238 101.756 44.4238 101.464C44.4238 99.9159 44.4852 98.3079 44.6198 96.3852C44.7332 94.7972 44.8958 93.2119 45.1065 91.6626C45.5331 88.5386 46.1772 85.4039 47.0225 82.3399C49.6852 72.7053 54.2452 63.8892 60.5785 56.1346C63.0625 53.0946 65.8532 50.2092 68.8718 47.5612C72.5918 44.2959 76.6598 41.4106 80.9665 38.9826C91.6625 32.9532 103.82 29.7665 116.12 29.7665C128.428 29.7665 140.584 32.9532 151.274 38.9826C155.57 41.4026 159.64 44.2892 163.374 47.5639C165.625 49.5399 167.758 51.6559 169.72 53.8559C170.385 54.6052 171.04 55.3719 171.663 56.1346C172.429 57.0719 173.186 58.0492 173.919 59.0439C175.37 61.0212 176.733 63.0932 177.969 65.1999C179.215 67.3225 180.362 69.5359 181.384 71.7799C182.93 75.1812 184.221 78.7319 185.221 82.3479C185.64 83.8652 186.012 85.4119 186.327 86.9412C186.648 88.4972 186.92 90.0839 187.137 91.6706C187.349 93.2346 187.513 94.8239 187.624 96.3932C187.681 97.2159 187.731 98.0399 187.764 98.8599C187.801 99.7692 187.82 100.621 187.82 101.464C187.82 101.771 187.811 102.076 187.8 102.379L187.793 102.632L187.792 102.661C187.767 104.168 187.689 105.711 187.567 107.231C187.46 108.559 187.3 109.812 187.164 110.841L187.156 110.928C187.131 111.177 187.101 111.424 187.069 111.643C186.607 114.903 185.929 118.104 185.056 121.168C184.052 124.676 182.78 128.116 181.271 131.397C179.956 134.253 178.443 137.043 176.765 139.701C175.185 142.195 173.483 144.565 171.699 146.753C167.659 151.704 162.959 156.107 157.732 159.839C153.627 162.771 149.173 165.281 144.442 167.325L144.242 167.412C142.896 167.988 141.505 168.532 140.117 169.027L139.826 169.128L139.721 169.164C138.218 169.689 136.813 170.133 135.408 170.527L135.335 170.545C133.931 170.936 132.461 171.293 130.992 171.604C130.86 171.635 130.729 171.663 130.631 171.683C129.268 171.964 127.865 172.207 126.329 172.427L126.217 172.443L125.614 172.527C124.172 172.717 122.732 172.867 121.333 172.968C121.16 172.98 120.986 172.991 120.812 173L120.65 173.009C119.004 173.113 117.522 173.163 116.12 173.163ZM116.12 163.829C116.152 163.829 116.184 163.829 116.217 163.829C126.636 163.813 136.445 161.231 145.071 156.693C147.591 155.372 150.009 153.885 152.309 152.243C156.85 149 160.943 145.171 164.468 140.852C166.059 138.9 167.526 136.845 168.88 134.707C170.336 132.401 171.643 129.992 172.792 127.495C174.107 124.637 175.205 121.669 176.082 118.601C176.804 116.069 177.36 113.468 177.757 110.815C178.126 108.396 178.357 105.931 178.437 103.428C178.448 103.12 178.454 102.812 178.461 102.503V102.499C178.465 102.153 178.486 101.812 178.486 101.464C178.486 100.633 178.464 99.8052 178.426 98.9826C178.397 98.3359 178.358 97.6919 178.313 97.0492C178.214 95.6612 178.073 94.2892 177.888 92.9266C177.7 91.5452 177.464 90.1772 177.186 88.8279C176.908 87.4772 176.585 86.1425 176.224 84.8252C175.723 83.0145 175.141 81.2359 174.486 79.4932C174.481 79.4826 174.477 79.4706 174.473 79.4599C174.468 79.4452 174.463 79.4319 174.457 79.4172C174.451 79.3999 174.444 79.3839 174.437 79.3665C174.436 79.3625 174.436 79.3599 174.435 79.3559C173.807 77.7012 173.112 76.0799 172.352 74.4959C171.913 73.5826 171.454 72.6825 170.974 71.7945C170.602 71.1092 170.22 70.4319 169.824 69.7626C168.767 67.9706 167.621 66.2372 166.395 64.5679C166.336 64.4879 166.276 64.4066 166.216 64.3266C165.64 63.5506 165.047 62.7879 164.436 62.0399C163.888 61.3692 163.325 60.7092 162.748 60.0626C161.062 58.1706 159.261 56.3826 157.36 54.7039C157.349 54.6946 157.337 54.6839 157.326 54.6746C157.315 54.6639 157.302 54.6532 157.291 54.6412C157.265 54.6199 157.24 54.5985 157.216 54.5759C153.984 51.7425 150.46 49.2372 146.693 47.1132C137.765 42.0786 127.476 39.1693 116.51 39.1012C116.381 39.0999 116.25 39.0999 116.12 39.0999C115.45 39.0999 114.784 39.1106 114.12 39.1319C113.456 39.1106 112.789 39.0999 112.12 39.0999C101.008 39.0999 90.5878 42.0186 81.5492 47.1132C77.7838 49.2372 74.2572 51.7425 71.0278 54.5759C68.4212 56.8639 65.9998 59.3546 63.8065 62.0399C58.4131 68.6426 54.3532 76.3759 52.0185 84.8252C51.2918 87.4599 50.7305 90.1639 50.3532 92.9266C50.1678 94.2892 50.0278 95.6612 49.9292 97.0492C49.8278 98.5092 49.7572 99.9799 49.7572 101.464C49.7572 101.812 49.7772 102.153 49.7798 102.499C49.8745 108.075 50.6972 113.472 52.1598 118.601C53.0358 121.669 54.1345 124.637 55.4505 127.495C56.5985 129.992 57.9078 132.401 59.3612 134.707C60.7158 136.845 62.1811 138.9 63.7731 140.852C67.2958 145.171 71.3892 149 75.9332 152.243C86.1425 159.531 98.6252 163.829 112.12 163.829C112.789 163.829 113.456 163.819 114.12 163.799C114.784 163.819 115.45 163.829 116.12 163.829Z" fill="url(#paint9_radial_2_1263)"/>
<path d="M112.12 163.829C98.6253 163.829 86.1427 159.53 75.9333 152.242H79.9333C85.0373 155.886 90.7107 158.784 96.7947 160.769C96.9133 160.808 97.0333 160.846 97.152 160.884C102.527 162.602 108.22 163.612 114.12 163.798C113.456 163.818 112.789 163.829 112.12 163.829ZM67.772 140.852H63.7733C62.1813 138.9 60.716 136.845 59.3613 134.706H63.3613C64.0907 135.858 64.864 136.976 65.6627 138.073C66.3387 139.021 67.0373 139.95 67.772 140.852ZM59.4493 127.494H55.4507C54.1347 124.637 53.036 121.669 52.16 118.601H56.16C56.2347 118.865 56.312 119.128 56.3907 119.389C57.2267 122.178 58.248 124.882 59.4493 127.494ZM53.78 102.498H49.78C49.7773 102.153 49.7573 101.812 49.7573 101.464C49.7573 99.9797 49.828 98.5091 49.9293 97.0491C50.028 95.6611 50.168 94.2891 50.3533 92.9264C50.7307 90.1637 51.292 87.4597 52.0187 84.825C54.3533 76.3757 58.4133 68.6424 63.8066 62.0398C66 59.3544 68.4213 56.8637 71.028 54.5757C74.2573 51.7424 77.784 49.2371 81.5493 47.1131C90.588 42.0184 101.008 39.0997 112.12 39.0997C112.789 39.0997 113.456 39.1104 114.12 39.1317C103.759 39.4597 94.0426 42.3251 85.5493 47.1131H81.5493C77.784 49.2371 74.2573 51.7424 71.028 54.5757H75.028C72.4213 56.8637 70 59.3544 67.8066 62.0398H63.8066C58.4133 68.6424 54.3533 76.3757 52.0187 84.825H56.0187C55.292 87.4597 54.7307 90.1637 54.3533 92.9264H50.3533C50.168 94.2891 50.028 95.6611 49.9293 97.0491H53.9293C53.828 98.5091 53.7573 99.9797 53.7573 101.464C53.7573 101.812 53.776 102.153 53.78 102.498Z" fill="#F68722"/>
<path d="M56.1603 118.601H52.1603C50.6976 113.472 49.8749 108.075 49.7803 102.499H53.7803C53.8749 108.075 54.6976 113.472 56.1603 118.601Z" fill="#F9C315"/>
<path d="M63.3614 134.707H59.3614C57.908 132.401 56.5987 129.992 55.4507 127.494H59.4493C60.5987 129.992 61.908 132.401 63.3614 134.707Z" fill="#F9C315"/>
<path d="M79.9335 152.243H75.9335C71.3895 149 67.2961 145.171 63.7734 140.852H67.7721C70.9935 144.799 74.6908 148.337 78.7721 151.393C79.1561 151.681 79.5428 151.964 79.9335 152.243Z" fill="#F9C315"/>
<path d="M53.9297 97.0493H49.9297C50.0284 95.6613 50.1683 94.2893 50.3537 92.9266H54.3537C54.1683 94.2893 54.0284 95.6613 53.9297 97.0493Z" fill="#F9C315"/>
<path d="M56.0186 84.8252H52.0186C54.3532 76.3758 58.4132 68.6425 63.8065 62.0399H67.8065C62.4132 68.6425 58.3532 76.3758 56.0186 84.8252Z" fill="#F9C315"/>
<path d="M75.0283 54.5759H71.0283C74.2577 51.7426 77.7843 49.2373 81.5496 47.1133H85.5496C81.783 49.2373 78.2577 51.7426 75.0283 54.5759Z" fill="#F9C315"/>
<path d="M116.217 163.829C117.511 163.826 118.791 163.774 120.065 163.694C120.264 163.681 120.465 163.673 120.665 163.658C121.916 163.568 123.156 163.437 124.384 163.274C124.597 163.246 124.809 163.216 125.021 163.185C126.273 163.006 127.517 162.794 128.745 162.541L129.043 162.476C130.323 162.206 131.589 161.9 132.84 161.552L132.912 161.533C134.173 161.18 135.415 160.782 136.643 160.353L136.983 160.234C138.197 159.802 139.396 159.334 140.576 158.83L140.796 158.734C142.249 158.105 143.676 157.425 145.071 156.693C136.445 161.23 126.636 163.813 116.217 163.829Z" fill="url(#paint10_radial_2_1263)"/>
<path d="M67.7719 140.852C67.0373 139.951 66.3386 139.021 65.6626 138.073C65.7679 138.217 65.8732 138.361 65.9786 138.505C66.5546 139.299 67.1439 140.08 67.7626 140.84L67.7719 140.852Z" fill="#F4741A"/>
<path d="M177.757 110.814C177.782 110.652 177.805 110.489 177.829 110.326C177.861 110.108 177.877 109.882 177.906 109.662C178.045 108.61 178.177 107.556 178.262 106.486C178.345 105.474 178.404 104.454 178.437 103.428C178.357 105.93 178.126 108.396 177.757 110.814ZM178.486 101.464C178.486 100.722 178.468 99.9838 178.437 99.2478C178.435 99.1584 178.43 99.0705 178.426 98.9825C178.464 99.8051 178.486 100.633 178.486 101.464ZM178.313 97.0491C178.214 95.6611 178.073 94.2891 177.888 92.9265C178.073 94.2891 178.214 95.6611 178.313 97.0491ZM174.486 79.4931C174.481 79.4825 174.477 79.4718 174.473 79.4598C174.477 79.4705 174.481 79.4825 174.486 79.4931ZM174.457 79.4171C174.45 79.3998 174.444 79.3824 174.437 79.3664C174.444 79.3838 174.45 79.3998 174.457 79.4171ZM174.435 79.3558C174.065 78.3838 173.673 77.4238 173.258 76.4758C173.137 76.1971 173.013 75.9198 172.888 75.6438C172.713 75.2585 172.534 74.8758 172.352 74.4958C173.112 76.0798 173.807 77.7011 174.435 79.3558ZM170.974 71.7944C170.633 71.1638 170.281 70.5398 169.918 69.9238C169.888 69.8691 169.856 69.8158 169.824 69.7625C170.22 70.4318 170.602 71.1091 170.974 71.7944ZM157.36 54.7038C157.349 54.6945 157.338 54.6838 157.326 54.6745C157.337 54.6838 157.349 54.6945 157.36 54.7038ZM157.29 54.6411C157.265 54.6198 157.24 54.5984 157.216 54.5758C157.24 54.5984 157.265 54.6198 157.29 54.6411Z" fill="url(#paint11_radial_2_1263)"/>
<defs>
<radialGradient id="paint0_radial_2_1263" cx="0" cy="0" r="1" gradientUnits="userSpaceOnUse" gradientTransform="translate(368.856 391.8) scale(695.693)">
<stop stop-color="#292A36"/>
<stop offset="1" stop-color="#191618"/>
</radialGradient>
<radialGradient id="paint1_radial_2_1263" cx="0" cy="0" r="1" gradientUnits="userSpaceOnUse" gradientTransform="translate(368.856 391.8) scale(695.693 695.694)">
<stop stop-color="#3C394D"/>
<stop offset="1" stop-color="#281E1F"/>
</radialGradient>
<radialGradient id="paint2_radial_2_1263" cx="0" cy="0" r="1" gradientUnits="userSpaceOnUse" gradientTransform="translate(368.856 391.8) scale(695.693 695.693)">
<stop stop-color="#3C394D"/>
<stop offset="1" stop-color="#281E1F"/>
</radialGradient>
<radialGradient id="paint3_radial_2_1263" cx="0" cy="0" r="1" gradientUnits="userSpaceOnUse" gradientTransform="translate(368.856 391.8) scale(695.694 695.695)">
<stop stop-color="#3B3339"/>
<stop offset="1" stop-color="#271C1A"/>
</radialGradient>
<radialGradient id="paint4_radial_2_1263" cx="0" cy="0" r="1" gradientUnits="userSpaceOnUse" gradientTransform="translate(368.856 391.8) scale(695.694 695.694)">
<stop stop-color="#3B3339"/>
<stop offset="1" stop-color="#271C1A"/>
</radialGradient>
<radialGradient id="paint5_radial_2_1263" cx="0" cy="0" r="1" gradientUnits="userSpaceOnUse" gradientTransform="translate(368.856 391.8) scale(695.693)">
<stop stop-color="#31303F"/>
<stop offset="1" stop-color="#1B181A"/>
</radialGradient>
<radialGradient id="paint6_radial_2_1263" cx="0" cy="0" r="1" gradientUnits="userSpaceOnUse" gradientTransform="translate(368.856 391.78) scale(695.693 695.634)">
<stop stop-color="#31303F"/>
<stop offset="1" stop-color="#1B181A"/>
</radialGradient>
<radialGradient id="paint7_radial_2_1263" cx="0" cy="0" r="1" gradientUnits="userSpaceOnUse" gradientTransform="translate(368.855 392.144) scale(695.691 696.373)">
<stop stop-color="#31303F"/>
<stop offset="1" stop-color="#1B181A"/>
</radialGradient>
<radialGradient id="paint8_radial_2_1263" cx="0" cy="0" r="1" gradientUnits="userSpaceOnUse" gradientTransform="translate(368.856 391.78) scale(695.693 695.634)">
<stop stop-color="#30292D"/>
<stop offset="1" stop-color="#1B1616"/>
</radialGradient>
<radialGradient id="paint9_radial_2_1263" cx="0" cy="0" r="1" gradientUnits="userSpaceOnUse" gradientTransform="translate(368.856 391.8) scale(695.693)">
<stop stop-color="#483941"/>
<stop offset="1" stop-color="#2E1F1C"/>
</radialGradient>
<radialGradient id="paint10_radial_2_1263" cx="0" cy="0" r="1" gradientUnits="userSpaceOnUse" gradientTransform="translate(368.856 391.8) scale(695.694)">
<stop stop-color="#483331"/>
<stop offset="1" stop-color="#2E1D18"/>
</radialGradient>
<radialGradient id="paint11_radial_2_1263" cx="0" cy="0" r="1" gradientUnits="userSpaceOnUse" gradientTransform="translate(368.856 391.8) scale(695.693)">
<stop stop-color="#483331"/>
<stop offset="1" stop-color="#2E1D18"/>
</radialGradient>
</defs>
</svg>
