<svg width="35" height="34" viewBox="0 0 35 34" fill="none" xmlns="http://www.w3.org/2000/svg">
<g clip-path="url(#clip0_2_1382)">
<path d="M29.6289 6.36355C27.3977 5.38605 25.006 4.66355 22.505 4.25271C22.4827 4.24856 22.4596 4.25124 22.439 4.26037C22.4184 4.26951 22.4011 4.28466 22.3898 4.30371C22.0835 4.82646 21.7423 5.50788 21.5031 6.04621C18.8505 5.66122 16.1538 5.66122 13.5012 6.04621C13.2348 5.4496 12.9344 4.86787 12.6014 4.30371C12.5901 4.28442 12.5731 4.26894 12.5525 4.25932C12.5319 4.2497 12.5088 4.24641 12.4862 4.24988C9.98664 4.66071 7.59497 5.38321 5.36226 6.36213C5.34305 6.36996 5.32677 6.3833 5.31559 6.40038C0.77726 12.8816 -0.466698 19.2028 0.144343 25.4446C0.146044 25.4599 0.150929 25.4747 0.158701 25.4881C0.166473 25.5015 0.176969 25.5132 0.189552 25.5225C2.83846 27.396 5.79296 28.8231 8.92934 29.7442C8.95121 29.7508 8.97459 29.7507 8.99645 29.7442C9.0183 29.7376 9.03761 29.7248 9.05184 29.7074C9.72559 28.829 10.3264 27.9011 10.8398 26.9265C10.8704 26.8698 10.8412 26.8018 10.78 26.7791C9.83789 26.4345 8.92509 26.0186 8.04997 25.5353C8.03424 25.5266 8.02099 25.5142 8.01141 25.4993C8.00182 25.4844 7.99619 25.4674 7.99504 25.4498C7.99388 25.4323 7.99723 25.4147 8.00478 25.3987C8.01233 25.3827 8.02385 25.3688 8.0383 25.3582C8.22205 25.2265 8.4058 25.089 8.5808 24.9516C8.59655 24.9393 8.61553 24.9314 8.63561 24.9289C8.6557 24.9264 8.6761 24.9294 8.69455 24.9375C14.4214 27.4365 20.6237 27.4365 26.2835 24.9375C26.302 24.9289 26.3226 24.9255 26.343 24.9278C26.3634 24.93 26.3827 24.9378 26.3987 24.9502C26.5737 25.089 26.756 25.2265 26.9412 25.3582C26.9558 25.3686 26.9675 25.3823 26.9753 25.3982C26.9831 25.414 26.9867 25.4315 26.9859 25.449C26.985 25.4666 26.9797 25.4836 26.9703 25.4987C26.961 25.5138 26.948 25.5263 26.9325 25.5353C26.0604 26.0226 25.1533 26.4349 24.201 26.7777C24.1864 26.7829 24.1731 26.791 24.1619 26.8016C24.1508 26.8121 24.1421 26.8249 24.1365 26.8389C24.1308 26.853 24.1283 26.8681 24.1291 26.8832C24.1299 26.8983 24.1341 26.913 24.1412 26.9265C24.6662 27.8997 25.2671 28.8262 25.9277 29.706C25.9414 29.724 25.9605 29.7375 25.9825 29.7446C26.0044 29.7517 26.028 29.7521 26.0502 29.7456C29.1919 28.8271 32.1513 27.3993 34.8031 25.5225C34.816 25.5138 34.8269 25.5024 34.8349 25.4892C34.843 25.476 34.848 25.4613 34.8498 25.446C35.5789 18.2295 33.6277 11.9594 29.6741 6.40321C29.6644 6.38516 29.6484 6.37108 29.6289 6.36355ZM11.6958 21.6437C9.97205 21.6437 8.55018 20.1293 8.55018 18.272C8.55018 16.4134 9.94434 14.9004 11.6958 14.9004C13.4604 14.9004 14.8691 16.4261 14.8414 18.272C14.8414 20.1307 13.4473 21.6437 11.6958 21.6437V21.6437ZM23.326 21.6437C21.6008 21.6437 20.1804 20.1293 20.1804 18.272C20.1804 16.4134 21.5731 14.9004 23.326 14.9004C25.0906 14.9004 26.4993 16.4261 26.4716 18.272C26.4716 20.1307 25.0921 21.6437 23.326 21.6437V21.6437Z" fill="white"/>
</g>
<defs>
<clipPath id="clip0_2_1382">
<rect width="35" height="34" fill="white"/>
</clipPath>
</defs>
</svg>
