<svg width="35" height="35" viewBox="0 0 35 35" fill="none" xmlns="http://www.w3.org/2000/svg">
<path fill-rule="evenodd" clip-rule="evenodd" d="M10.8864 1.5545C12.597 1.47575 13.1424 1.45825 17.4999 1.45825C21.8574 1.45825 22.4028 1.47721 24.112 1.5545C25.8212 1.63179 26.9878 1.9045 28.0087 2.29971C29.0776 2.70367 30.0474 3.33513 30.8495 4.15179C31.6662 4.95242 32.2962 5.92075 32.6987 6.99117C33.0953 8.012 33.3666 9.17867 33.4453 10.8849C33.5241 12.5985 33.5416 13.1439 33.5416 17.4999C33.5416 21.8574 33.5226 22.4028 33.4453 24.1135C33.368 25.8197 33.0953 26.9864 32.6987 28.0072C32.2962 29.0778 31.6651 30.0477 30.8495 30.8495C30.0474 31.6662 29.0776 32.2962 28.0087 32.6987C26.9878 33.0953 25.8212 33.3666 24.1149 33.4453C22.4028 33.5241 21.8574 33.5416 17.4999 33.5416C13.1424 33.5416 12.597 33.5226 10.8864 33.4453C9.18013 33.368 8.01346 33.0953 6.99263 32.6987C5.92209 32.2961 4.95216 31.6651 4.15034 30.8495C3.33422 30.0484 2.70267 29.0789 2.29971 28.0087C1.9045 26.9878 1.63325 25.8212 1.5545 24.1149C1.47575 22.4014 1.45825 21.856 1.45825 17.4999C1.45825 13.1424 1.47721 12.597 1.5545 10.8878C1.63179 9.17867 1.9045 8.012 2.29971 6.99117C2.70326 5.92087 3.3353 4.95142 4.15179 4.15034C4.95248 3.3344 5.92144 2.70286 6.99117 2.29971C8.012 1.9045 9.17867 1.63325 10.8849 1.5545H10.8864ZM23.9822 4.442C22.2905 4.36471 21.783 4.34867 17.4999 4.34867C13.2168 4.34867 12.7093 4.36471 11.0176 4.442C9.45283 4.51346 8.60408 4.7745 8.03825 4.99471C7.29013 5.28638 6.75492 5.632 6.19346 6.19346C5.66123 6.71124 5.25164 7.34158 4.99471 8.03825C4.7745 8.60408 4.51346 9.45283 4.442 11.0176C4.36471 12.7093 4.34867 13.2168 4.34867 17.4999C4.34867 21.783 4.36471 22.2905 4.442 23.9822C4.51346 25.547 4.7745 26.3958 4.99471 26.9616C5.25138 27.6572 5.66117 28.2887 6.19346 28.8064C6.71117 29.3387 7.34263 29.7485 8.03825 30.0051C8.60408 30.2253 9.45283 30.4864 11.0176 30.5578C12.7093 30.6351 13.2153 30.6512 17.4999 30.6512C21.7845 30.6512 22.2905 30.6351 23.9822 30.5578C25.547 30.4864 26.3958 30.2253 26.9616 30.0051C27.7097 29.7135 28.2449 29.3678 28.8064 28.8064C29.3387 28.2887 29.7485 27.6572 30.0051 26.9616C30.2253 26.3958 30.4864 25.547 30.5578 23.9822C30.6351 22.2905 30.6512 21.783 30.6512 17.4999C30.6512 13.2168 30.6351 12.7093 30.5578 11.0176C30.4864 9.45283 30.2253 8.60408 30.0051 8.03825C29.7135 7.29013 29.3678 6.75492 28.8064 6.19346C28.2886 5.66127 27.6582 5.25168 26.9616 4.99471C26.3958 4.7745 25.547 4.51346 23.9822 4.442ZM15.451 22.4451C16.5953 22.9215 17.8694 22.9858 19.0559 22.627C20.2423 22.2683 21.2674 21.5088 21.956 20.4782C22.6447 19.4476 22.9542 18.2099 22.8317 16.9765C22.7091 15.7431 22.1622 14.5905 21.2843 13.7155C20.7246 13.1562 20.0479 12.728 19.3029 12.4616C18.5579 12.1952 17.763 12.0973 16.9756 12.175C16.1882 12.2526 15.4278 12.5039 14.7492 12.9107C14.0706 13.3175 13.4906 13.8698 13.051 14.5276C12.6114 15.1855 12.3231 15.9326 12.2069 16.7153C12.0907 17.4979 12.1495 18.2966 12.379 19.0538C12.6086 19.811 13.0031 20.5079 13.5343 21.0943C14.0655 21.6807 14.7201 22.1421 15.451 22.4451ZM11.6695 11.6695C12.4352 10.9038 13.3441 10.2965 14.3445 9.88211C15.3449 9.46774 16.4171 9.25446 17.4999 9.25446C18.5827 9.25446 19.6549 9.46774 20.6553 9.88211C21.6557 10.2965 22.5647 10.9038 23.3303 11.6695C24.096 12.4352 24.7034 13.3441 25.1177 14.3445C25.5321 15.3449 25.7454 16.4171 25.7454 17.4999C25.7454 18.5827 25.5321 19.6549 25.1177 20.6553C24.7034 21.6557 24.096 22.5647 23.3303 23.3303C21.784 24.8767 19.6867 25.7454 17.4999 25.7454C15.3131 25.7454 13.2158 24.8767 11.6695 23.3303C10.1232 21.784 9.25446 19.6867 9.25446 17.4999C9.25446 15.3131 10.1232 13.2158 11.6695 11.6695ZM27.5741 10.4824C27.7638 10.3034 27.9157 10.0882 28.0208 9.84946C28.1258 9.61072 28.1819 9.35333 28.1857 9.09252C28.1895 8.83172 28.141 8.5728 28.0429 8.3311C27.9449 8.0894 27.7993 7.86983 27.6149 7.68539C27.4304 7.50095 27.2109 7.3554 26.9692 7.25734C26.7275 7.15928 26.4685 7.11072 26.2077 7.11452C25.9469 7.11832 25.6895 7.17441 25.4508 7.27948C25.212 7.38454 24.9968 7.53643 24.8178 7.72617C24.4697 8.09517 24.2792 8.5853 24.2866 9.09252C24.294 9.59975 24.4987 10.0841 24.8574 10.4428C25.2161 10.8015 25.7005 11.0063 26.2077 11.0137C26.7149 11.0211 27.2051 10.8305 27.5741 10.4824Z" fill="white"/>
</svg>
